# xmcd
#
# Track frame offsets:
#	150
#	13219
#	25781
#	37953
#	59764
#	75288
#	87779
#	99088
#	111913
#	122919
#	135665
#	147184
#	160989
#	171340
#	184863
#	197220
#	208890
#	218068
#	230394
#	241338
#	250847
#	263643
#	273403
#	283606
#	294099
#	303731
#	317591
#	328438
#	338722
#
# Disc length: 4686 seconds
#
# Revision: 0
# Processed by: cddbd v1.5.2PL0 Copyright (c) Steve Scherf et al.
# Submitted via: EasyCDDAExtractor 2010.6.0.0
#
DISCID=aa124c1d
DTITLE=Grammer Billy - A Thousand Miles Ago
DYEAR=1900
DGENRE=
TTITLE0=I Almost Lost My Mind (Plaza-1949)
TTITLE1=When You Know (Plaza-1949)
TTITLE2=Part Of My Soul (Scoop 502)
TTITLE3=Take Me Back (Guest Star)
TTITLE4=Wabash Cannonball (Guest Star)
TTITLE5=Jealous Heart (Scoop 502)
TTITLE6=Gotta Travel On (Monument 400)
TTITLE7=Midnight (Monument-1959)
TTITLE8=Poor Old Heartsick Me (Monument-1959)
TTITLE9=One Thousand Concrete Blocks (Monument-1959)
TTITLE10=Barrel House Bessie (Monument-1959)
TTITLE11=Sweet Kitty Wells (Monument-1959)
TTITLE12=Thousand Miles Ago (Monument-1959)
TTITLE13=Run Boy (Monument-1959)
TTITLE14=My Lucky Love (Monument-1959)
TTITLE15=Give Myself A Party (Monument-1959)
TTITLE16=You Know I Do (Monument-1959)
TTITLE17=How's The World Treating You (Monument-1959)
TTITLE18=Chasing A Dream (Monument 400)
TTITLE19=Bonaparte's Retreat (Monument 403)
TTITLE20=Kissing Tree (Monument 403)
TTITLE21=Willy Quit Your Playing (Monument 407)
TTITLE22=It Takes You (Monument 407)
TTITLE23=Loveland (Monument 413)
TTITLE24=On The Job Too Long (Monument 413)
TTITLE25=Unknown Soldier (1960)
TTITLE26=Princess Of Persia (1960)
TTITLE27=Big Big Dream (1960)
TTITLE28=River Of Regret (1960)
EXTD=
EXTT0=
EXTT1=
EXTT2=
EXTT3=
EXTT4=
EXTT5=
EXTT6=
EXTT7=
EXTT8=
EXTT9=
EXTT10=
EXTT11=
EXTT12=
EXTT13=
EXTT14=
EXTT15=
EXTT16=
EXTT17=
EXTT18=
EXTT19=
EXTT20=
EXTT21=
EXTT22=
EXTT23=
EXTT24=
EXTT25=
EXTT26=
EXTT27=
EXTT28=
PLAYORDER=
